<svg width="14" height="14" viewBox="0 0 14 14" fill="none" xmlns="http://www.w3.org/2000/svg">
<path fill-rule="evenodd" clip-rule="evenodd" d="M7.05421 0.672689C7.18323 0.901611 7.16573 1.18496 7.00954 1.39628C6.44006 2.16672 6.16602 3.11596 6.23727 4.07137C6.30852 5.02678 6.72032 5.92488 7.39777 6.60233C8.07522 7.27978 8.97332 7.69158 9.92873 7.76283C10.8841 7.83408 11.8334 7.56004 12.6038 6.99056C12.8151 6.83437 13.0985 6.81687 13.3274 6.94589C13.5563 7.07491 13.6881 7.32636 13.6639 7.58802C13.5474 8.84891 13.0742 10.0505 12.2997 11.0523C11.5251 12.0541 10.4813 12.8145 9.29038 13.2447C8.09943 13.6749 6.81059 13.757 5.57468 13.4814C4.33876 13.2058 3.20689 12.584 2.31151 11.6886C1.41613 10.7932 0.794261 9.66134 0.518681 8.42543C0.243102 7.18951 0.325206 5.90067 0.755387 4.70972C1.18557 3.51877 1.94603 2.47496 2.9478 1.70043C3.94956 0.925901 5.15119 0.452691 6.41208 0.336168C6.67374 0.311987 6.9252 0.443767 7.05421 0.672689ZM5.21102 1.95938C4.69261 2.14695 4.20383 2.41469 3.76335 2.75525C2.96194 3.37488 2.35356 4.20992 2.00942 5.16269C1.66528 6.11545 1.59959 7.14652 1.82006 8.13525C2.04052 9.12398 2.53801 10.0295 3.25432 10.7458C3.97063 11.4621 4.87612 11.9596 5.86485 12.18C6.85358 12.4005 7.88465 12.3348 8.83741 11.9907C9.79018 11.6465 10.6252 11.0382 11.2448 10.2368C11.5854 9.79627 11.8532 9.30749 12.0407 8.78908C11.3386 9.04309 10.5856 9.14885 9.82958 9.09247C8.5557 8.99747 7.35823 8.44841 6.45496 7.54514C5.55169 6.64187 5.00263 5.4444 4.90763 4.17053C4.85125 3.41455 4.95702 2.66146 5.21102 1.95938Z" fill="white"/>
</svg>
