<svg width="204" height="36" viewBox="0 0 204 36" fill="none" xmlns="http://www.w3.org/2000/svg">
<path d="M123.677 36.0001C123.14 35.9232 122.598 35.8705 122.065 35.7666C119.67 35.3009 117.568 34.3056 115.947 32.4643C115.852 32.3575 115.767 32.2436 115.656 32.1069C117.16 31.0945 118.649 30.0905 120.167 29.0681C120.271 29.1906 120.373 29.313 120.477 29.4341C121.86 31.0233 124.407 31.6584 126.177 30.7755C127.96 29.8869 128.978 28.4287 129.183 26.4665C129.233 25.978 129.19 25.4811 129.19 24.9328C129.068 25.024 128.981 25.0909 128.892 25.1564C127.63 26.0834 126.273 26.8196 124.68 27.0062C122.614 27.2483 120.641 26.8794 118.856 25.8499C115.241 23.7637 113.457 20.6309 113.743 16.5199C114.057 12.0215 117.521 8.40169 122.042 7.62276C124.622 7.17705 126.87 7.89474 128.912 9.40275C128.989 9.45971 129.068 9.5124 129.207 9.61208V8.26498H134.604C134.612 8.31767 134.63 8.3789 134.63 8.44156C134.63 14.4508 134.673 20.4601 134.611 26.4679C134.563 31.0888 130.743 35.224 126.057 35.8947C125.847 35.9247 125.638 35.9645 125.431 36.0001H123.677ZM119.233 17.2618C119.227 20.0001 121.455 22.1945 124.251 22.2059C127.075 22.2173 129.341 20.0414 129.35 17.3102C129.357 14.5676 127.113 12.3689 124.301 12.3661C121.496 12.3632 119.24 14.5434 119.234 17.2618H119.233Z" fill="white"/>
<path d="M203.997 8.1838C203.823 8.88298 203.643 9.58216 203.474 10.2842C203.271 11.1272 203.078 11.973 202.884 12.8047C201.407 12.1439 199.908 12.2977 198.413 12.6779C197.559 12.8944 196.762 13.2489 196.082 13.8185C195.553 14.2614 195.271 14.7869 195.276 15.5074C195.301 19.0076 195.287 22.5078 195.287 26.0094V26.3668H189.84V8.25357H195.28V10.9221C196.022 9.61918 197.155 8.84311 198.384 8.15959C199.522 7.52734 200.73 7.3593 201.995 7.58287C202.671 7.70249 203.332 7.90469 204 8.06845V8.18237L203.997 8.1838Z" fill="white"/>
<path d="M12.9758 20.6122C10.4759 17.3028 7.98912 14.0134 5.50378 10.7226C5.48489 10.7297 5.46456 10.7368 5.44567 10.7425V26.3637H0V1.43101C0.097322 1.43101 0.200454 1.43101 0.303587 1.43101C1.91158 1.43101 3.51812 1.43528 5.12611 1.42531C5.35416 1.42531 5.49216 1.49082 5.62725 1.67309C8.00219 4.87423 10.3844 8.06967 12.7652 11.2665C12.8276 11.3491 12.893 11.4303 12.9758 11.5342C13.0528 11.436 13.1196 11.3577 13.1791 11.2765C15.5526 8.07537 17.9261 4.87423 20.2938 1.66739C20.4202 1.49651 20.5451 1.42389 20.7674 1.42531C22.3841 1.43671 24.0008 1.43101 25.6189 1.43101C25.7148 1.43101 25.8092 1.43101 25.9225 1.43101V26.3694H20.4812V10.7397C20.458 10.7325 20.4362 10.7268 20.4129 10.7197C17.9407 14.0092 15.4669 17.2986 12.9743 20.6136L12.9758 20.6122Z" fill="white"/>
<path d="M96.0989 18.9506H81.3858C81.4265 19.0674 81.4512 19.1571 81.4875 19.2411C82.3489 21.2661 84.2968 22.401 86.5294 22.1888C87.6319 22.0834 88.6705 21.7901 89.5986 21.1863C89.9284 20.9727 90.2145 20.695 90.5588 20.4145C91.975 21.2646 93.432 22.139 94.915 23.0304C94.8337 23.1343 94.764 23.2312 94.6855 23.3223C93.1647 25.0852 91.2008 26.1461 88.9508 26.6986C85.4951 27.5459 82.2559 27.0489 79.422 24.8716C76.9235 22.9521 75.5407 20.3931 75.593 17.2518C75.6554 13.4184 77.5569 10.5904 80.9472 8.76053C84.9025 6.62454 89.7729 7.1742 93.0107 10.119C95.5948 12.4686 96.6305 15.402 96.1381 18.8353C96.1337 18.8624 96.1207 18.888 96.0989 18.9521V18.9506ZM81.5383 15.2554H90.5036C89.9763 13.736 88.1403 12.4729 86.3536 12.3675C83.9975 12.2294 82.3954 13.5679 81.5383 15.2554Z" fill="white"/>
<path d="M186.511 18.9434H171.757C171.802 19.0688 171.83 19.167 171.871 19.2581C172.764 21.3144 174.747 22.4322 177.011 22.1773C177.982 22.0677 178.907 21.8228 179.741 21.3244C180.159 21.0737 180.527 20.7434 180.951 20.4244C182.36 21.2717 183.818 22.1474 185.289 23.0303C184.691 23.8178 183.994 24.4856 183.166 24.9997C179.245 27.4361 175.162 27.916 171.014 25.6633C168.113 24.0898 166.379 21.5849 166.027 18.3397C165.614 14.5219 167.183 11.496 170.366 9.32436C174.416 6.56181 179.882 6.91211 183.421 10.1489C186.01 12.5155 186.996 15.4717 186.511 18.9434ZM180.89 15.271C180.217 13.4824 178.247 12.2891 176.137 12.3674C174.366 12.4329 172.357 13.8185 171.939 15.271H180.89Z" fill="white"/>
<path d="M75.105 8.23931C73.6104 9.77438 72.1723 11.2511 70.7357 12.7292C69.2991 14.2058 67.8625 15.684 66.3998 17.1877C69.5911 20.2407 72.7722 23.2838 75.994 26.3653C75.8705 26.3753 75.7921 26.3853 75.7137 26.3853C73.5116 26.3853 71.3095 26.3895 69.1088 26.3782C68.9665 26.3782 68.7907 26.2984 68.6861 26.1987C66.6235 24.2265 64.5681 22.2457 62.5113 20.2664C62.443 20.1994 62.3704 20.1368 62.26 20.0357V26.3653H56.7983V1.44971H62.2338V14.5291C62.3457 14.4251 62.4096 14.3725 62.4663 14.3141C64.3648 12.3561 66.2647 10.4009 68.1574 8.43867C68.2954 8.29485 68.432 8.23362 68.6353 8.23504C70.6805 8.24216 72.7272 8.23931 74.7724 8.23931H75.1036H75.105Z" fill="white"/>
<path d="M101.434 2.46924H106.897V8.23642H111.424C111.296 8.79747 111.177 9.32577 111.056 9.85265C110.844 10.7825 110.625 11.7095 110.426 12.6423C110.385 12.8331 110.311 12.8858 110.121 12.8843C109.166 12.8758 108.212 12.8801 107.256 12.8801C107.152 12.8801 107.046 12.8801 106.905 12.8801C106.905 13.0054 106.905 13.1079 106.905 13.209C106.905 15.5173 106.905 17.8256 106.905 20.1325C106.905 21.3941 107.74 22.2044 109.028 22.2058C109.907 22.2058 110.755 22.0876 111.525 21.6348C111.617 21.5807 111.717 21.5436 111.814 21.4995C111.83 21.4924 111.851 21.4924 111.9 21.4853C112.06 22.156 112.222 22.8267 112.382 23.5002C112.59 24.3817 112.785 25.266 113.01 26.1431C113.072 26.3881 112.963 26.4365 112.774 26.4906C111.371 26.8964 109.929 27.0246 108.475 27.0573C107.532 27.0787 106.587 27.1314 105.66 26.8737C103.209 26.1916 101.488 23.9758 101.473 21.4525C101.457 18.7156 101.453 15.9787 101.444 13.2418C101.444 13.1293 101.444 13.0182 101.444 12.8786H97.6707V8.25493H101.433V2.46924H101.434Z" fill="white"/>
<path d="M45.5191 26.3737H40.0706V8.2562H45.5104V10.9063C47.9856 7.39753 51.2873 6.88205 54.2157 8.09387C53.8482 9.66453 53.4807 11.2409 53.1161 12.8016C51.4921 12.1081 49.8725 12.3046 48.2572 12.7959C47.5469 13.0123 46.886 13.337 46.3151 13.8155C45.7879 14.2583 45.5017 14.7824 45.5061 15.5029C45.5308 19.0017 45.5177 22.5018 45.5177 26.0006V26.3723L45.5191 26.3737Z" fill="white"/>
<path d="M148.221 26.3867V1.44971H153.307C152.688 1.96377 152.084 2.49207 151.448 2.9805C151.115 3.2354 150.824 3.49599 150.869 3.93458C150.917 4.39738 151.23 4.69072 151.66 4.84309C152.543 5.15779 153.456 5.35145 154.399 5.36854C154.684 5.37424 154.725 5.46679 154.656 5.7103C154.437 6.48922 154.064 7.19125 153.484 7.76085C152.28 8.94561 151.841 10.4066 151.819 12.0214C151.805 13.1464 151.827 14.2714 151.83 15.3963C151.833 16.769 151.835 18.1418 151.83 19.5145C151.824 20.5398 152.159 21.434 152.828 22.2244C153.583 23.1158 153.985 24.1581 154.099 25.3059C154.133 25.6605 154.077 25.7074 153.719 25.7103C153.456 25.7117 153.194 25.7075 152.931 25.7117C152.498 25.7203 152.172 25.9068 151.941 26.2714C151.889 26.3539 151.754 26.4323 151.657 26.4323C150.96 26.428 150.262 26.3995 149.565 26.3867C149.128 26.3782 148.692 26.3853 148.221 26.3853V26.3867Z" fill="white"/>
<path d="M157.272 1.44674H162.942V25.1078C162.072 24.8743 161.303 24.4741 160.629 23.9117C159.2 22.7198 158.433 21.2061 158.427 19.3577C158.416 15.933 158.418 12.5097 158.426 9.08504C158.429 7.96436 158.312 6.86076 158.103 5.75859C158.025 5.35133 158.041 4.88995 158.156 4.49124C158.493 3.32214 158.241 2.34812 157.33 1.53075C157.312 1.51366 157.301 1.48803 157.275 1.44531L157.272 1.44674Z" fill="white"/>
<path d="M30.4429 8.25073H35.8566V26.3668H30.4429V8.25073Z" fill="white"/>
<path d="M144.177 26.378H138.765V8.2605H144.177V26.378Z" fill="white"/>
<path d="M29.9069 3.17978C29.9069 1.39694 31.3275 0 33.1432 0C34.9546 0 36.3912 1.40121 36.3926 3.17266C36.3941 4.94553 34.9604 6.35244 33.1505 6.35244C31.3319 6.35244 29.9084 4.9612 29.9069 3.17978Z" fill="white"/>
<path d="M138.229 3.15843C138.235 1.37986 139.663 -0.00426212 141.487 9.86204e-06C143.291 0.00428184 144.722 1.42116 144.715 3.19545C144.706 4.97402 143.258 6.36384 141.42 6.35387C139.635 6.3439 138.223 4.92988 138.229 3.15843Z" fill="white"/>
<path d="M157.547 22.9263C158.551 24.5439 159.886 25.6888 161.642 26.3923H156.972C157.258 26.0448 157.227 25.6219 157.22 25.2047C157.208 24.5069 157.213 23.812 157.461 23.1441C157.48 23.0915 157.502 23.0402 157.547 22.9263Z" fill="white"/>
</svg>
